<svg xmlns="http://www.w3.org/2000/svg" viewBox="0 0 960 320" role="img" aria-label="CT brand mark">
  <defs>
    <linearGradient id="logoGradient" x1="32" y1="32" x2="272" y2="240" gradientUnits="userSpaceOnUse">
      <stop offset="0" stop-color="#2457F5" />
      <stop offset="1" stop-color="#5B82FF" />
    </linearGradient>
  </defs>

  <g transform="translate(32 40)">
    <rect width="240" height="240" rx="56" fill="url(#logoGradient)" />
    <path
      d="M82 66h76l34 34v76a18 18 0 0 1-18 18H82a18 18 0 0 1-18-18V84a18 18 0 0 1 18-18z"
      fill="#FFFFFF"
    />
    <path d="M158 66v34h34" fill="none" stroke="#2457F5" stroke-width="20" stroke-linejoin="round" />
    <rect x="96" y="120" width="78" height="10" rx="5" fill="#D9E4FF" />
    <rect x="96" y="144" width="58" height="10" rx="5" fill="#D9E4FF" />
    <rect x="96" y="168" width="68" height="10" rx="5" fill="#D9E4FF" />
  </g>

  <g transform="translate(332 96)" fill="none" stroke-linecap="round" stroke-linejoin="round">
    <rect x="0" y="20" width="156" height="20" rx="10" fill="#2457F5" />
    <rect x="0" y="62" width="238" height="20" rx="10" fill="#5B82FF" />
    <rect x="0" y="104" width="192" height="20" rx="10" fill="#AAB6C5" />
    <rect x="0" y="146" width="126" height="20" rx="10" fill="#D9E4FF" />
  </g>
</svg>
